<?xml version="1.0" encoding="utf-8"?>
<!-- Generator: Adobe Illustrator 28.0.0, SVG Export Plug-In . SVG Version: 6.00 Build 0)  -->
<svg version="1.1" id="Calque_1" xmlns="http://www.w3.org/2000/svg" xmlns:xlink="http://www.w3.org/1999/xlink" x="0px" y="0px"
	 viewBox="0 0 63.1 76.8" style="enable-background:new 0 0 63.1 76.8;" xml:space="preserve">
<style type="text/css">
	.st0{fill:#E3D9FF;}
</style>
<path class="st0" d="M46.7,43.6c-5.7,0-10.6,3-13.4,7.5C9.1,39.5,19.4,5.8,19.9,4.4c0.5-1.6,0-3.2-1.1-3.6l0,0l-0.1,0
	c-1.2-0.3-2.6,0.7-3.1,2.4C15.4,3.6,2.9,43.9,31.2,57.1c-0.1,0.7-0.2,1.4-0.2,2.2c0,8.7,7,15.7,15.7,15.7c8.7,0,15.7-7,15.7-15.7
	S55.4,43.6,46.7,43.6z M46.7,68.1c-4.9,0-8.9-4-8.9-8.9s4-8.9,8.9-8.9s8.9,4,8.9,8.9S51.6,68.1,46.7,68.1z"/>
</svg>
