<?xml version="1.0" encoding="utf-8"?>
<!-- Generator: Adobe Illustrator 28.0.0, SVG Export Plug-In . SVG Version: 6.00 Build 0)  -->
<svg version="1.1" id="Calque_1" xmlns="http://www.w3.org/2000/svg" xmlns:xlink="http://www.w3.org/1999/xlink" x="0px" y="0px"
	 viewBox="0 0 43.5 73" style="enable-background:new 0 0 43.5 73;" xml:space="preserve">
<style type="text/css">
	.st0{fill:#EFEFEF;}
</style>
<path class="st0" d="M32.5,0c-6.1,0-11,4.9-11,11c0,0.8,0.1,1.5,0.2,2.2C-9.5,25.2,3.7,67.6,3.8,68c0.5,1.7,1.9,2.7,3.1,2.4l0.1,0
	c1.1-0.4,1.6-2,1.1-3.6C7.7,65.3-3.4,29.1,24.6,18.9l0.2-0.1c2,2,4.7,3.2,7.7,3.2c6.1,0,11-4.9,11-11S38.6,0,32.5,0z M32.5,17.2
	c-3.5,0-6.3-2.8-6.3-6.2s2.8-6.2,6.3-6.2c3.5,0,6.2,2.8,6.2,6.2S35.9,17.2,32.5,17.2z"/>
</svg>
