<?xml version="1.0" encoding="utf-8"?>
<!-- Generator: Adobe Illustrator 28.0.0, SVG Export Plug-In . SVG Version: 6.00 Build 0)  -->
<svg version="1.1" id="Calque_1" xmlns="http://www.w3.org/2000/svg" xmlns:xlink="http://www.w3.org/1999/xlink" x="0px" y="0px"
	 viewBox="0 0 55.8 65.2" style="enable-background:new 0 0 55.8 65.2;" xml:space="preserve">
<style type="text/css">
	.st0{fill:#E3D9FF;}
</style>
<path class="st0" d="M44.9,0c-4.6,0-8.5,2.8-10.1,6.8c0,0,0,0,0,0L34.1,7C2.1,18.6,15.4,61.6,15.5,62.1c0.5,1.7,1.9,2.7,3.1,2.4
	l0.1,0c1.1-0.4,1.6-2,1.1-3.6c-0.5-1.5-11-35.9,14.3-47.1c1.2,4.7,5.5,8.2,10.6,8.2c6.1,0,11-4.9,11-11S50.9,0,44.9,0z M44.8,17.2
	c-3.5,0-6.2-2.8-6.2-6.2s2.8-6.2,6.2-6.2s6.2,2.8,6.2,6.2S48.3,17.2,44.8,17.2z"/>
</svg>
