<?xml version="1.0" encoding="utf-8"?>
<!-- Generator: Adobe Illustrator 28.0.0, SVG Export Plug-In . SVG Version: 6.00 Build 0)  -->
<svg version="1.1" id="Calque_1" xmlns="http://www.w3.org/2000/svg" xmlns:xlink="http://www.w3.org/1999/xlink" x="0px" y="0px"
	 viewBox="0 0 55.9 65.2" style="enable-background:new 0 0 55.9 65.2;" xml:space="preserve">
<style type="text/css">
	.st0{fill:#E3D9FF;}
	.st1{fill:none;stroke:#E3D9FF;stroke-width:2;stroke-linecap:round;}
</style>
<g transform="translate(-8.999 -223.638)">
	<path class="st0" d="M53.9,223.6c-6.1,0-11,4.9-11,11s4.9,11,11,11s11-4.9,11-11S59.9,223.6,53.9,223.6z M53.9,240.9
		c-3.5,0-6.2-2.8-6.2-6.2s2.8-6.2,6.2-6.2s6.2,2.8,6.2,6.2S57.3,240.9,53.9,240.9z"/>
	<line class="st1" x1="30.5" y1="232" x2="28.7" y2="226.2"/>
	<line class="st1" x1="26.7" y1="234.3" x2="21.4" y2="229.6"/>
	<line class="st1" x1="25.8" y1="237.9" x2="21.1" y2="238.5"/>
</g>
<g>
	<path class="st0" d="M30.8,15.6c1.7-1,3.5-1.9,5.5-2.6l0.5-0.2c1.2-0.4,1.6-2.1,1-3.7c-0.6-1.7-2-2.7-3.2-2.3L34.1,7
		c-2.7,1-5.1,2.2-7.2,3.6L30.8,15.6z"/>
	<path class="st0" d="M24.7,20.6l-4.3-4.1c-2.5,3.1-4.3,6.6-5.5,10.3c-5.3,15.9,0.6,35,0.7,35.3c0.5,1.7,1.9,2.7,3.1,2.4l0.1,0
		c1.1-0.4,1.6-2,1.1-3.6C19.5,59.6,12,35.1,24.7,20.6z"/>
</g>
</svg>
