<?xml version="1.0" encoding="utf-8"?>
<!-- Generator: Adobe Illustrator 28.0.0, SVG Export Plug-In . SVG Version: 6.00 Build 0)  -->
<svg version="1.1" id="Calque_1" xmlns="http://www.w3.org/2000/svg" xmlns:xlink="http://www.w3.org/1999/xlink" x="0px" y="0px"
	 viewBox="0 0 89 107.5" style="enable-background:new 0 0 89 107.5;" xml:space="preserve">
<style type="text/css">
	.st0{fill:#E3D9FF;}
</style>
<path class="st0" d="M84.8,18.6c2.3,0,4.2-1.8,4.2-4.2c0-2.4-1.9-4.2-4.2-4.2c-2.1,0-3.8,1.6-4.1,3.6c0,0,0,0-0.1,0
	c-2.5,0.7-5.1,1.1-7.7,1.1c1.2-1.2,2.2-2.5,3-3.9c1.9,0.8,4.2,0,5.2-1.9c1.1-2,0.3-4.6-1.7-5.7c-2-1.1-4.6-0.3-5.7,1.7
	c-0.8,1.6-0.6,3.4,0.5,4.7c-1,1.8-2.1,3.1-3.3,4.2C70.3,12.8,69,12,67.5,12c-0.9,0-1.7,0.3-2.4,0.8c-1.6-7-7.9-12.2-15.3-12.2
	c-8.7,0-15.7,7-15.7,15.7c0,8.5,6.7,15.3,15.1,15.7c-1.8,7.8-6.3,15.2-15.7,19.4c-2.7-4.7-7.8-7.8-13.6-7.8c-8.7,0-15.7,7-15.7,15.7
	c0,6,3.3,11.2,8.3,13.8c0.5,12.7,4.8,27.3,21.6,33.4l0.6,0.2c1.1,0.4,2.6-0.7,3.2-2.3c0.6-1.7,0.1-3.3-1.1-3.7l-0.6-0.2
	c-13.4-4.9-17.8-15.7-18.8-25.8c0.8,0.1,1.7,0.2,2.6,0.2c8.7,0,15.7-7,15.7-15.7c0-0.6,0-1.2-0.1-1.8C48,52,52.9,41.6,54.4,31.3
	c5.4-1.6,9.5-6,10.8-11.6c0.7,0.5,1.5,0.7,2.3,0.7c1.7,0,3.1-1,3.8-2.4c0.4,0,0.8,0,1.2,0c1.7,0.8,3.3,2,4.6,3.3
	c-0.6,1.5-0.3,3.3,0.9,4.6c1.6,1.7,4.3,1.8,6,0.1c1.7-1.7,1.7-4.3,0.1-6c-1.6-1.6-4-1.8-5.7-0.4c-0.7-0.7-1.4-1.3-2.1-1.8
	c1.7-0.2,3.4-0.5,5.1-1C82.2,17.9,83.4,18.6,84.8,18.6z M75.7,6.1c0.5-1.1,1.9-1.5,2.9-0.9c1,0.6,1.4,1.9,0.8,2.9
	c-0.5,1.1-1.9,1.5-2.8,0.9C75.5,8.5,75.1,7.2,75.7,6.1z M20,68.1c-4.9,0-8.9-4-8.9-8.9c0-4.9,4-8.9,8.9-8.9c4.9,0,8.9,4,8.9,8.9
	C28.9,64.1,25,68.1,20,68.1z M49.9,25.1c-4.9,0-8.9-4-8.9-8.9c0-4.9,4-8.9,8.9-8.9c4.9,0,8.9,4,8.9,8.9
	C58.8,21.1,54.8,25.1,49.9,25.1z M84.8,12.2c1.2,0,2.2,1,2.2,2.2c-0.1,1.1-1,2.1-2.2,2.2c-1.2,0-2.2-1-2.2-2.2S83.6,12.2,84.8,12.2z
	 M82.6,21.5c0.8,0.9,0.8,2.2-0.1,3.1c-0.9,0.8-2.3,0.8-3.1-0.1c-0.7-0.8-0.8-1.8-0.3-2.7c0,0,0.1-0.1,0.1-0.2
	c0.1-0.1,0.2-0.2,0.3-0.3C80.4,20.6,81.8,20.6,82.6,21.5z"/>
</svg>
