<svg xmlns="http://www.w3.org/2000/svg" xmlns:xlink="http://www.w3.org/1999/xlink" width="24.325" height="25.725" viewBox="0 0 24.325 25.725"><defs><clipPath id="a"><rect width="24.325" height="25.725" fill="#787ab7"/></clipPath></defs><g transform="translate(0 0)"><g transform="translate(0 0)" clip-path="url(#a)"><path d="M6.131,17.318A22.271,22.271,0,0,1,9.2,17.7,33.3,33.3,0,0,0,8.336,4.312a1.537,1.537,0,1,0-2.982.746,30.007,30.007,0,0,1,.777,12.26" transform="translate(5.57 3.304)" fill="#787ab7"/><path d="M7.747,8.425A4.213,4.213,0,1,1,11.96,4.214,4.217,4.217,0,0,1,7.747,8.425m0-6.376A2.163,2.163,0,1,0,9.911,4.214,2.167,2.167,0,0,0,7.747,2.049" transform="translate(3.708 0)" fill="#787ab7"/><path d="M8.648,16.866a4.213,4.213,0,1,1,4.214-4.214,4.218,4.218,0,0,1-4.214,4.214" transform="translate(4.653 8.859)" fill="#787ab7"/><path d="M14.891,9.079a4.213,4.213,0,1,1,.115-5.958,4.216,4.216,0,0,1-.115,5.958M10.47,4.484a2.163,2.163,0,1,0,3.06.059,2.169,2.169,0,0,0-3.06-.059" transform="translate(8.143 1.923)" fill="#787ab7"/><path d="M10.809,4.948a18.71,18.71,0,0,0-4.421,6.029c.584.391,1.15.812,1.7,1.254a16.323,16.323,0,0,1,3.953-5.624c.057-.057.117-.113.176-.17l.008-.006a1.025,1.025,0,0,0-1.414-1.484" transform="translate(6.704 4.9)" fill="#787ab7"/><path d="M2.205,11.461a4.213,4.213,0,1,1,5.712-1.7,4.217,4.217,0,0,1-5.712,1.7M5.243,5.854a2.164,2.164,0,1,0,.873,2.933,2.166,2.166,0,0,0-.873-2.933" transform="translate(0 3.72)" fill="#787ab7"/><path d="M11.56,12.909A17.049,17.049,0,0,0,4.528,6.332l-.234-.125a1.024,1.024,0,0,0-.967,1.806l.008.006c.072.037.143.076.215.115,4.605,2.494,6.642,5.685,7.433,8.694a23.561,23.561,0,0,1,.576-3.919" transform="translate(2.928 6.389)" fill="#787ab7"/></g></g></svg>