<svg xmlns="http://www.w3.org/2000/svg" xmlns:xlink="http://www.w3.org/1999/xlink" width="55" height="55" viewBox="0 0 55 55"><defs><filter id="a" x="0" y="0" width="55" height="55" filterUnits="userSpaceOnUse"><feOffset dy="3" input="SourceAlpha"/><feGaussianBlur stdDeviation="3" result="b"/><feFlood flood-opacity="0.161"/><feComposite operator="in" in2="b"/><feComposite in="SourceGraphic"/></filter></defs><g transform="translate(-163.5 -303.5)"><g transform="translate(90.5 -565.5)"><g transform="matrix(1, 0, 0, 1, 73, 869)" filter="url(#a)"><g transform="translate(9 6)" fill="#efefef" stroke="#ffbd40" stroke-width="1"><circle cx="18.5" cy="18.5" r="18.5" stroke="none"/><circle cx="18.5" cy="18.5" r="18" fill="none"/></g></g></g><path d="M21.33.378A.607.607,0,0,0,20.225.331a6.7,6.7,0,0,1-5.853,3.417H11.248a7.5,7.5,0,0,0-7.5,7.5,7.721,7.721,0,0,0,.059.8A18.682,18.682,0,0,1,15,8.746.625.625,0,0,1,15,10C5.18,10,1.017,16.013.1,18.274a1.251,1.251,0,0,0,2.316.949,10.273,10.273,0,0,1,2.808-3.538,7.481,7.481,0,0,0,6.83,3.015c6.131-.445,10.446-5.943,10.446-12.675A14.2,14.2,0,0,0,21.33.378Z" transform="translate(178.5 317.502)" fill="#fff"/></g></svg>