<?xml version="1.0" encoding="utf-8"?>
<!-- Generator: Adobe Illustrator 28.0.0, SVG Export Plug-In . SVG Version: 6.00 Build 0)  -->
<svg version="1.1" id="Calque_1" xmlns="http://www.w3.org/2000/svg" xmlns:xlink="http://www.w3.org/1999/xlink" x="0px" y="0px"
	 viewBox="0 0 55.8 66.2" style="enable-background:new 0 0 55.8 66.2;" xml:space="preserve">
<style type="text/css">
	.st0{fill:#FFBD40;}
</style>
<path class="st0" d="M44.9,0c-5,0-9.2,3.3-10.5,7.9L34.1,8C2.1,19.6,15.4,62.6,15.5,63.1c0.5,1.7,1.9,2.7,3.1,2.4l0.1,0
	c1.1-0.4,1.6-2,1.1-3.6c-0.5-1.5-11.1-36.1,14.6-47.2C36,18.9,40.1,22,44.9,22c6.1,0,11-4.9,11-11S50.9,0,44.9,0z M44.8,17.3
	c-3.5,0-6.2-2.8-6.2-6.2s2.8-6.2,6.2-6.2s6.2,2.8,6.2,6.2S48.3,17.3,44.8,17.3z"/>
</svg>
