<?xml version="1.0" encoding="utf-8"?>
<!-- Generator: Adobe Illustrator 28.0.0, SVG Export Plug-In . SVG Version: 6.00 Build 0)  -->
<svg version="1.1" id="Calque_1" xmlns="http://www.w3.org/2000/svg" xmlns:xlink="http://www.w3.org/1999/xlink" x="0px" y="0px"
	 viewBox="0 0 55.8 65.2" style="enable-background:new 0 0 55.8 65.2;" xml:space="preserve">
<style type="text/css">
	.st0{fill:#E3D9FF;}
</style>
<g transform="translate(-288.217 -223.638)">
	<g transform="translate(341.688 275.475) rotate(160)">
		<g>
			<g transform="translate(0 0)">
				<path class="st0" d="M36.9,0c-1.2,0-2.2,1.3-2.3,3c-0.1,1.6-2,39.4-31.8,39.4H2.3C1,42.4,0,43.8,0,45.6c0,1.8,1,3.2,2.2,3.2h0.6
					c34.1,0,36.3-45,36.3-45.4C39.2,1.6,38.3,0.1,36.9,0L36.9,0"/>
			</g>
		</g>
	</g>
	<path class="st0" d="M333.1,223.6c-6.1,0-11,4.9-11,11s4.9,11,11,11s11-4.9,11-11S339.1,223.6,333.1,223.6z M333.1,240.9
		c-3.5,0-6.2-2.8-6.2-6.2s2.8-6.2,6.2-6.2s6.2,2.8,6.2,6.2S336.5,240.9,333.1,240.9z"/>
	<path class="st0" d="M329.3,235.3l-0.4-0.4c-0.2-0.2-0.2-0.5,0-0.7l0,0l3.8-3.8c0.2-0.2,0.5-0.2,0.7,0l0,0l3.8,3.8
		c0.2,0.2,0.2,0.5,0,0.7l0,0l-0.4,0.4c-0.2,0.2-0.5,0.2-0.7,0l0,0l-2.3-2.4v5.7c0,0.3-0.2,0.5-0.5,0.5l0,0h-0.6
		c-0.3,0-0.5-0.2-0.5-0.5l0,0v-5.7l-2.3,2.4C329.8,235.5,329.5,235.5,329.3,235.3L329.3,235.3z"/>
</g>
</svg>
