<svg xmlns="http://www.w3.org/2000/svg" xmlns:xlink="http://www.w3.org/1999/xlink" width="21.478" height="12.701" viewBox="0 0 21.478 12.701"><defs><clipPath id="a"><rect width="21.478" height="12.701" fill="#6e39ff"/></clipPath></defs><g clip-path="url(#a)"><path d="M19.606,8.222A1.871,1.871,0,1,0,17.82,5.79H14.107a2.693,2.693,0,0,0,.193-1.04,2.443,2.443,0,0,1,.629-1.887,1.822,1.822,0,0,1,1.281-.4l.03,0h.492a1.871,1.871,0,1,0,0-1.183h-.423a3.009,3.009,0,0,0-2.155.689,3.535,3.535,0,0,0-1.038,2.782,1.051,1.051,0,0,1-.278.83.762.762,0,0,1-.269.142,2.462,2.462,0,0,0-4.76,0,.91.91,0,0,1-.348-.176.988.988,0,0,1-.277-.792A3.535,3.535,0,0,0,6.148,1.969,3.009,3.009,0,0,0,3.993,1.28H3.646a1.871,1.871,0,1,0,0,1.183h.411l.036,0a1.809,1.809,0,0,1,1.271.4A2.432,2.432,0,0,1,6,4.751a2.483,2.483,0,0,0,.207,1.04H4.756a1.872,1.872,0,1,0-.022,1.183H7.808a2.462,2.462,0,0,0,4.764,0H12.8a1.7,1.7,0,0,1,.96.393A2.432,2.432,0,0,1,14.4,9.261a2.065,2.065,0,0,0,.682,1.634,2.684,2.684,0,0,0,1.665.576,1.872,1.872,0,1,0-.033-1.187,1.484,1.484,0,0,1-.86-.286.922.922,0,0,1-.271-.738,3.97,3.97,0,0,0-.6-2.288h2.858a1.874,1.874,0,0,0,1.764,1.248m-1.1-7.038a.688.688,0,1,1-.688.688.689.689,0,0,1,.688-.688M1.871,2.559a.688.688,0,1,1,.688-.688.689.689,0,0,1-.688.688m16.636,7.582a.688.688,0,1,1-.688.688.689.689,0,0,1,.688-.688m1.1-4.479a.688.688,0,1,1-.688.688.689.689,0,0,1,.688-.688M2.97,7.038a.688.688,0,1,1,.688-.688.689.689,0,0,1-.688.688m7.219.591A1.279,1.279,0,1,1,11.468,6.35a1.28,1.28,0,0,1-1.279,1.279" fill="#6e39ff"/></g></svg>