<svg xmlns="http://www.w3.org/2000/svg" xmlns:xlink="http://www.w3.org/1999/xlink" width="25.498" height="26.965" viewBox="0 0 25.498 26.965"><defs><clipPath id="a"><rect width="25.498" height="26.965" fill="#6e39ff"/></clipPath></defs><g transform="translate(0 0)" clip-path="url(#a)"><path d="M19.64,13.472a4.954,4.954,0,0,0-2.965.868,69.2,69.2,0,0,1-9.5-.273,10.144,10.144,0,0,1-3.094-.726c-.5-.277-.019-.715.157-.853a37.307,37.307,0,0,1,7.626-3.56c-.146-.114-.475-.829-.621-.943a42.819,42.819,0,0,0-7.962,3.469c-6.219,4.277,9.693,5.083,13.117,5.231A4.582,4.582,0,0,0,19.64,17.8c2.056,0,3.723-.967,3.723-2.163S21.7,13.472,19.64,13.472m0,2.563c-.823,0-1.491-.284-1.491-.632s.668-.634,1.491-.634,1.491.284,1.491.634-.668.632-1.491.632" transform="translate(2.135 9.164)" fill="#6e39ff"/><path d="M7.5,3.581,2.819,7.418,3.745,12.6A2.139,2.139,0,0,0,4.976,14.17l9,4.024.537-.44-4.5-5.487a1.62,1.62,0,1,1,.827-.679l4.5,5.487.537-.44L13.7,7.021a2.133,2.133,0,0,0-1.3-1.517ZM.364,4.423,2.059,6.49,6.738,2.653,5.043.587A1.605,1.605,0,0,0,2.785.363l-2.2,1.8A1.6,1.6,0,0,0,.364,4.423" transform="translate(-0.001 0)" fill="#6e39ff"/></g></svg>