<svg xmlns="http://www.w3.org/2000/svg" width="15.5" height="15.504" viewBox="0 0 15.5 15.504">
  <g id="Icon_ionic-ios-timer" data-name="Icon ionic-ios-timer" transform="translate(-3.938 -3.938)">
    <path id="Tracé_3568" data-name="Tracé 3568" d="M11.689,19.441A7.752,7.752,0,0,1,6.31,6.108a.622.622,0,1,1,.864.9A6.506,6.506,0,1,0,12.31,5.213V7.639a.624.624,0,1,1-1.248,0V4.562a.624.624,0,0,1,.624-.624,7.752,7.752,0,0,1,0,15.5Z" fill="#9b9b9b"/>
    <path id="Tracé_3569" data-name="Tracé 3569" d="M11.867,11.324,15.724,14.1a1.167,1.167,0,0,1-1.357,1.9,1.127,1.127,0,0,1-.271-.271l-2.771-3.857a.389.389,0,0,1,.543-.543Z" transform="translate(-3.282 -3.282)" fill="#9b9b9b"/>
  </g>
</svg>
