<svg xmlns="http://www.w3.org/2000/svg" width="22.49" height="19.996" viewBox="0 0 22.49 19.996"><path d="M21.33.378A.607.607,0,0,0,20.225.331a6.7,6.7,0,0,1-5.853,3.417H11.248a7.5,7.5,0,0,0-7.5,7.5,7.721,7.721,0,0,0,.059.8A18.682,18.682,0,0,1,15,8.746.625.625,0,0,1,15,10C5.18,10,1.017,16.013.1,18.274a1.251,1.251,0,0,0,2.316.949,10.273,10.273,0,0,1,2.808-3.538,7.481,7.481,0,0,0,6.83,3.015c6.131-.445,10.446-5.943,10.446-12.675A14.2,14.2,0,0,0,21.33.378Z" transform="translate(-0.004 0.002)" fill="#ffbd40"/></svg>