<svg xmlns="http://www.w3.org/2000/svg" width="13.511" height="13.514" viewBox="0 0 13.511 13.514"><g transform="translate(-3.938 -3.938)"><path d="M10.695,17.452A6.757,6.757,0,0,1,6.005,5.829a.542.542,0,1,1,.753.78,5.671,5.671,0,1,0,4.477-1.561V7.164a.544.544,0,1,1-1.088,0V4.481a.544.544,0,0,1,.544-.544,6.757,6.757,0,0,1,0,13.514Z" transform="translate(0 0)" fill="#6e39ff"/><path d="M11.788,11.315l3.362,2.416a1.017,1.017,0,1,1-1.182,1.655.982.982,0,0,1-.236-.236l-2.416-3.362a.339.339,0,0,1,.473-.473Z" transform="translate(-3.8 -3.8)" fill="#6e39ff"/></g></svg>