<?xml version="1.0" encoding="UTF-8" standalone="no"?>
<!-- Generator: Adobe Illustrator 28.0.0, SVG Export Plug-In . SVG Version: 6.00 Build 0)  -->

<svg
   version="1.1"
   id="Calque_1"
   x="0px"
   y="0px"
   viewBox="0 0 42.638672 35.351564"
   xml:space="preserve"
   width="42.638672"
   height="35.351562"
   xmlns="http://www.w3.org/2000/svg"
   xmlns:svg="http://www.w3.org/2000/svg"><defs
   id="defs887" />
<style
   type="text/css"
   id="style880">
	.st0{fill:#E3D9FF;}
</style>
<path
   id="path882"
   class="st0"
   d="m 31.839844,0 c -4.6,0 -8.49961,2.8007813 -10.09961,6.8007812 L 21.039062,7 C 6.487999,12.274761 1.317963,24.039889 0,35.351562 h 4.832031 c 1.503224,-8.505816 5.857616,-16.969221 16.207031,-21.550781 1.2,4.7 5.49961,8.199219 10.59961,8.199219 6.1,0 11,-4.9 11,-11 0,-6.1 -4.798828,-11 -10.798828,-11 z m -0.09961,4.8007812 c 3.4,0 6.199219,2.7992188 6.199219,6.1992188 0,3.4 -2.699219,6.199219 -6.199219,6.199219 -3.5,0 -6.201172,-2.799219 -6.201172,-6.199219 0,-3.4 2.801172,-6.1992187 6.201172,-6.1992188 z" />
</svg>
